<?xml version="1.0" encoding="utf-8"?>
<!-- Generator: Adobe Illustrator 18.1.1, SVG Export Plug-In . SVG Version: 6.00 Build 0)  -->
<svg version="1.1" id="Layer_1" xmlns="http://www.w3.org/2000/svg" xmlns:xlink="http://www.w3.org/1999/xlink" x="0px" y="0px"
	 viewBox="0 0 140 60" enable-background="new 0 0 140 60" xml:space="preserve">
<g>
	<path fill="#FFFFFF" d="M15.8,18.7H6.5v7.4H1.3V2.2h14.4c4.6,0,8.2,3.8,8.2,8.3C24,15.1,20.3,18.7,15.8,18.7z M15.3,6.9H6.5V14h8.9
		c2.2,0,3.4-1.5,3.4-3.5C18.7,8.5,17.2,6.9,15.3,6.9z"/>
	<path fill="#FFFFFF" d="M27.1,2.2h5.1v19.1h20.4v4.8H27.1V2.2z"/>
	<path fill="#FFFFFF" d="M55.7,2.2h14.7v5h-9.6v6.1H70v4.9h-9.2v2.9h9.8v5H55.7V2.2z"/>
	<path fill="#FFFFFF" d="M72.3,26.1L86.8,1.8l14.5,24.3h-5.8l-1.8-3H79.8l-1.8,3H72.3z M86.8,10.6l-4.5,7.9h9L86.8,10.6z"/>
	<path fill="#FFFFFF" d="M107.8,16.8l2.3-6.9c1.4-4.3,4.2-7.6,10.7-7.6v5c-3.5,0-4.9,2-5.6,4.3l-2.3,7c-1.4,4.2-4.1,7.6-10.7,7.6v-5
		C105.7,21.1,107,19.3,107.8,16.8z"/>
	<path fill="#FFFFFF" d="M122.5,2.2h14.7v5h-9.6v6.1h9.2v4.9h-9.2v2.9h9.8v5h-14.9V2.2z"/>
</g>
<g>
	<path fill="#FFFFFF" d="M28.4,57.8c0,0-14.5,0-16.2,0C5.4,57.8,0,52.3,0,45.5c0-6.9,5.4-12.4,12.2-12.4c1.7,0,16.2,0,16.2,0v5.1
		c0,0-14.2-0.1-16.2-0.1c-3.8,0-6.9,3.3-6.9,7.4c0,4,3.1,7.3,6.9,7.3c2,0,16.2,0.1,16.2,0.1V57.8z"/>
	<path fill="#FFFFFF" d="M32.1,33.5h5.1V43h38v-9.5h5.1v23.9h-5.1v-9.7h-38v9.7h-5.1V33.5z"/>
	<path fill="#FFFFFF" d="M84.8,33.5H90v23.9h-5.1V33.5z"/>
	<path fill="#FFFFFF" d="M94.4,33.5h5.1v19.1h19.4v4.8H94.4V33.5z"/>
	<path fill="#FFFFFF" d="M122,33.5h5.1v19.1h9.9v4.8h-15V33.5z"/>
</g>
</svg>
