<?xml version="1.0" encoding="utf-8"?>
<!-- Generator: Adobe Illustrator 18.1.1, SVG Export Plug-In . SVG Version: 6.00 Build 0)  -->
<svg version="1.1" id="Layer_1" xmlns="http://www.w3.org/2000/svg" xmlns:xlink="http://www.w3.org/1999/xlink" x="0px" y="0px"
	 viewBox="-190 328 380 464" enable-background="new -190 328 380 464" xml:space="preserve">
<g>
	<polyline fill="none" stroke="#FFFFFF" stroke-width="2" stroke-miterlimit="10" points="50,370 186,370 186,790 -188,790 
		-188,370 -52,370 	"/>
	<path fill="none" stroke="#FFFFFF" stroke-width="2" stroke-miterlimit="10" d="M-33.7,385.9c-3.1-5.4-4.8-11.7-4.8-18.3
		c0-5.6,1.2-10.9,3.4-15.7"/>
	<path fill="none" stroke="#FFFFFF" stroke-width="2" stroke-miterlimit="10" d="M31.8,350.3c2.7,5.2,4.2,11,4.2,17.3
		c0,5.1-1,10-2.9,14.4"/>
	<g>
		<path fill="#FFFFFF" d="M-1.9,355c0,0.2-0.2,0.3-0.7,0.3c-0.9,0-1.4,0-1.7,0.1c-0.2,0.1-0.3,0.2-0.4,0.3c0,0.1-0.1,0.6-0.1,1.4
			v11.3v3.3c0,1.6,0,2.9,0,4c0,1.5-0.2,2.6-0.3,3.3c-0.3,1.2-1,2.3-2.1,3.2c-1.1,0.9-2.3,1.3-3.5,1.3c-0.9,0-1.6-0.2-2.2-0.7
			c-0.6-0.5-0.8-1.1-0.8-1.9c0-1.3,0.7-2,2-2c0.5,0,1,0.2,1.4,0.5c0.4,0.3,0.5,0.8,0.5,1.3c0,0.4-0.2,0.8-0.5,1.2
			c-0.2,0.3-0.3,0.5-0.3,0.6c0,0.2,0.2,0.3,0.5,0.3c0.8,0,1.3-0.5,1.6-1.4c0.2-0.5,0.2-1.9,0.2-4.3v-20.1c0-0.8-0.2-1.2-0.7-1.4
			c-0.2-0.1-0.8-0.1-1.7-0.1c-0.4,0-0.7,0-0.8-0.1c-0.1,0-0.2-0.1-0.2-0.2c0-0.2,0.2-0.4,0.6-0.4c0.1,0,0.4,0,1,0c0.7,0,1.3,0,1.8,0
			H-3C-2.2,354.7-1.9,354.8-1.9,355z"/>
		<path fill="#FFFFFF" d="M-2.7,366.5l-0.1-0.8l2.8-2.8c4.5-4.5,6.8-6.9,6.8-7.1c0-0.3-0.6-0.4-1.7-0.4c-0.7,0-1.1-0.1-1.1-0.4
			c0-0.2,0.2-0.3,0.5-0.3c0.3,0,1.5,0,3.4,0h1.9c0.8,0,1.3,0,1.4,0c0.2,0,0.4,0.2,0.4,0.4c0,0.3-0.3,0.4-0.8,0.4
			c-1.1,0-1.8,0-2.1,0.1c-0.3,0.1-0.6,0.3-0.9,0.6c-1.5,1.6-3.8,4-7,7.2L0,364.3l-0.5,0.5c0.1,0.2,0.7,0.8,1.8,1.9
			c2,2,4.8,5.3,8.5,9.8c0.8,0.9,1.3,1.5,1.6,1.7c0.3,0.2,0.9,0.3,1.7,0.4c0.7,0,1,0.2,1,0.4c0,0.2-0.2,0.3-0.5,0.3h-0.3H9.1H5
			c-0.1,0-0.3,0-0.5,0c-0.4,0-0.7-0.1-0.7-0.3c0-0.2,0.3-0.3,0.9-0.3c1.2-0.1,1.8-0.3,1.8-0.6C6.6,377.7,3.7,373.8-2.7,366.5
			 M-2.7,366.5c-0.3-0.3-0.1-0.8-0.1-0.8 M-2.7,366.5c-0.3-0.3-0.3-0.6-0.1-0.8"/>
	</g>
	<g>
		<path fill="#FFFFFF" d="M-25.8,338.6c0,0.2,0,0.3,0.1,0.5c0.1,0.1,0.3,0.2,0.5,0.2c0.2,0,0.6-0.1,1.1-0.4c0.6-0.2,1.1-0.3,1.5-0.3
			c0.4,0,0.8,0.3,1.2,0.7c0.3,0.4,0.4,0.9,0.3,1.5c-0.1,0.5-0.5,1-1,1.4c-0.8,0.6-1.7,0.9-2.8,0.7l0-1.3c0.9,0.1,1.6-0.1,2-0.4
			c0.2-0.2,0.3-0.3,0.4-0.5c0-0.2,0-0.3-0.1-0.5c-0.1-0.2-0.3-0.2-0.5-0.2c-0.2,0-0.5,0.1-0.9,0.3c-0.7,0.3-1.3,0.4-1.7,0.4
			c-0.4,0-0.8-0.3-1.2-0.7c-0.4-0.5-0.5-1-0.3-1.5c0.1-0.5,0.5-1,1-1.4c0.3-0.3,0.7-0.5,1.1-0.6c0.4-0.1,0.8-0.2,1.2-0.2l0.1,1.2
			c-0.7,0-1.3,0.2-1.7,0.5C-25.7,338.3-25.8,338.4-25.8,338.6z"/>
		<path fill="#FFFFFF" d="M-17,335.9l-0.3-3.8l1.4-0.5l2.4,3l-0.2-3.8l1.4-0.6l0.3,6.7l-1,0.4l-2.9-3.6l0.3,4.6l-1,0.4l-4.4-5
			l1.4-0.6L-17,335.9z"/>
		<path fill="#FFFFFF" d="M-3.7,329l0.1,1.2l-3.1,0.3l0.1,1.3l2.8-0.3l0.1,1.2l-2.8,0.3l0.1,1.3l3.2-0.3l0.1,1.2l-4.6,0.5l-0.7-6.3
			L-3.7,329z"/>
		<path fill="#FFFFFF" d="M5.6,330.5c0.5,0.6,0.7,1.4,0.6,2.4c-0.1,1-0.5,1.7-1.2,2.2c-0.7,0.5-1.6,0.7-2.8,0.5l-2.1-0.3L1,329
			l2.2,0.3C4.3,329.5,5.1,329.9,5.6,330.5z M4.1,334c0.4-0.3,0.6-0.7,0.7-1.3c0.1-0.6,0-1.1-0.3-1.5c-0.3-0.4-0.8-0.6-1.5-0.7
			l-0.8-0.1l-0.5,3.8l0.9,0.1C3.2,334.4,3.7,334.3,4.1,334z"/>
		<path fill="#FFFFFF" d="M15.2,332.7l-0.5,1.2l-2.9-1.1l-0.5,1.2l2.6,1l-0.4,1.1l-2.6-1l-0.5,1.2l3,1.2l-0.5,1.2l-4.3-1.7l2.3-5.9
			L15.2,332.7z"/>
		<path fill="#FFFFFF" d="M22.9,337.4l1.1,0.8l-3.7,5.1l-1.1-0.8l-0.1-4.9l-2.3,3.2l-1.1-0.8l3.7-5.1l1.1,0.8l0.2,5.1L22.9,337.4z"
			/>
	</g>
	<g>
		<path fill="#FFFFFF" d="M-22.7,394.4l-1,1l-2.6-2.6l-1.1,1.1l2.4,2.3l-1,1l-2.4-2.3l-1.1,1.1l2.7,2.7l-1,1l-3.9-3.8l5.2-5.3
			L-22.7,394.4z"/>
		<path fill="#FFFFFF" d="M-19.7,398.3c-0.2,0-0.4,0.1-0.5,0.3c-0.1,0.2-0.1,0.4,0,0.6c0.1,0.2,0.4,0.6,0.9,1.1c0.5,0.5,0.9,1,1,1.5
			c0.2,0.5,0.1,1-0.3,1.6c-0.3,0.6-0.8,0.9-1.5,1c-0.6,0.1-1.3-0.1-2-0.5c-1-0.6-1.7-1.5-2.1-2.7l1.5-0.5c0.3,1,0.8,1.7,1.4,2
			c0.3,0.2,0.5,0.2,0.7,0.2c0.2,0,0.4-0.1,0.5-0.3c0.1-0.2,0.1-0.4,0-0.6c-0.1-0.2-0.3-0.5-0.7-0.9c-0.6-0.6-1-1.2-1.2-1.7
			c-0.2-0.5-0.1-1,0.3-1.6c0.4-0.6,0.9-0.9,1.5-1c0.6-0.1,1.3,0.1,1.9,0.5c0.4,0.3,0.8,0.6,1.1,1c0.3,0.4,0.6,0.8,0.7,1.3l-1.3,0.6
			c-0.3-0.7-0.8-1.3-1.3-1.6C-19.3,398.3-19.5,398.3-19.7,398.3z"/>
		<path fill="#FFFFFF" d="M-10.8,402.1l-1.7,5.7l-1.6-0.5l1.7-5.7l-2-0.6l0.4-1.4l5.6,1.7l-0.4,1.4L-10.8,402.1z"/>
		<path fill="#FFFFFF" d="M-7.3,408.8c-0.2-0.2-0.2-0.4-0.2-0.7c0-0.3,0.1-0.5,0.3-0.6c0.2-0.2,0.4-0.2,0.7-0.2
			c0.3,0,0.5,0.1,0.6,0.3c0.2,0.2,0.2,0.4,0.2,0.7c0,0.3-0.1,0.5-0.3,0.6c-0.2,0.2-0.4,0.2-0.7,0.2C-6.9,409.1-7.1,409-7.3,408.8z"
			/>
		<path fill="#FFFFFF" d="M1.9,401.8l3-0.5l1.2,7.3l-1.6,0.3l-1-5.9l-1.4,0.2L1.9,401.8z"/>
		<path fill="#FFFFFF" d="M12,405.5c0.4-0.2,0.7-0.4,0.8-0.8c0.1-0.4,0.1-0.8,0-1.3c-0.3,0.4-0.7,0.8-1.2,1c-0.6,0.3-1.3,0.3-1.9,0
			c-0.6-0.3-1-0.7-1.3-1.4c-0.3-0.7-0.3-1.3,0-2c0.3-0.6,0.8-1,1.5-1.3c0.5-0.2,0.9-0.3,1.4-0.2c0.4,0,0.8,0.2,1.2,0.5
			c0.6,0.5,1.2,1.2,1.5,2.2c0.2,0.6,0.4,1.2,0.4,1.8c0,0.5,0,1-0.2,1.4c-0.3,0.8-0.9,1.3-1.6,1.6c-0.3,0.1-0.6,0.2-1,0.2
			c-0.3,0-0.6,0-0.8,0c-0.2,0-0.4-0.1-0.7-0.2l0.3-1.4c0.1,0,0.1,0,0.2,0.1c0.1,0,0.3,0.1,0.5,0.1C11.6,405.6,11.8,405.5,12,405.5z
			 M11.3,402.9c0.3-0.1,0.5-0.3,0.7-0.6c0.1-0.3,0.1-0.5,0-0.8c-0.1-0.3-0.3-0.5-0.6-0.6c-0.3-0.1-0.6-0.1-0.9,0
			c-0.3,0.1-0.5,0.3-0.6,0.6c-0.1,0.3-0.1,0.5,0,0.8c0.1,0.3,0.3,0.5,0.5,0.6C10.7,403,11,403,11.3,402.9z"/>
		<path fill="#FFFFFF" d="M20.3,401.1c0.4-0.3,0.6-0.6,0.6-1c0-0.4-0.1-0.8-0.4-1.3c-0.2,0.5-0.5,0.9-0.9,1.2
			c-0.6,0.4-1.2,0.5-1.8,0.4c-0.6-0.1-1.2-0.5-1.6-1.1c-0.4-0.6-0.6-1.2-0.4-1.9c0.1-0.7,0.5-1.2,1.1-1.6c0.4-0.3,0.9-0.5,1.3-0.5
			c0.4-0.1,0.8,0,1.2,0.2c0.7,0.3,1.4,0.9,2,1.8c0.4,0.6,0.7,1.1,0.8,1.6c0.2,0.5,0.2,1,0.2,1.4c-0.1,0.8-0.5,1.5-1.2,1.9
			c-0.3,0.2-0.6,0.4-0.9,0.5s-0.6,0.2-0.8,0.2c-0.2,0-0.4,0-0.7,0l0-1.4c0.1,0,0.1,0,0.3,0c0.1,0,0.3,0,0.5-0.1
			C19.9,401.3,20.1,401.2,20.3,401.1z M18.9,398.8c0.3-0.2,0.4-0.4,0.5-0.7c0.1-0.3,0-0.5-0.2-0.8c-0.2-0.3-0.4-0.4-0.7-0.5
			c-0.3-0.1-0.6,0-0.8,0.2c-0.3,0.2-0.4,0.4-0.5,0.7c0,0.3,0,0.5,0.2,0.8c0.2,0.3,0.4,0.4,0.7,0.5C18.4,399,18.7,399,18.9,398.8z"/>
		<path fill="#FFFFFF" d="M28.8,395.2c-0.7,0.8-1.4,1.1-2.3,1.1c-0.9-0.1-1.7-0.5-2.6-1.2c-0.9-0.8-1.4-1.5-1.6-2.4
			c-0.2-0.8,0-1.6,0.7-2.4c0.7-0.8,1.4-1.1,2.3-1.1c0.9,0.1,1.7,0.5,2.6,1.2c0.9,0.8,1.4,1.5,1.6,2.4
			C29.7,393.7,29.5,394.5,28.8,395.2z M23.9,392.4c0.2,0.5,0.6,0.9,1.1,1.4c0.6,0.5,1.1,0.8,1.6,0.9c0.5,0.1,0.9,0,1.2-0.4
			c0.3-0.4,0.4-0.8,0.2-1.3c-0.2-0.5-0.6-0.9-1.1-1.4c-0.6-0.5-1.1-0.8-1.6-0.9c-0.5-0.1-0.9,0-1.2,0.4
			C23.7,391.6,23.7,392,23.9,392.4z"/>
	</g>
</g>
</svg>
