<svg id="scrollbox" xmlns="http://www.w3.org/2000/svg" viewBox="0 0 190 40">

  <path fill="url(#pattern)" d="M188 2v36H2V2h186m2-2H0v40h190V0z"/>
  <g id="loadplz">
    <path fill="url(#pattern)" d="M39.5 16.1c.6.5.9 1.3.9 2.3 0 1-.3 1.8-.9 2.3-.6.5-1.5.8-2.6.8h-1.7V25h-1.8v-9.7H37c1.1 0 1.9.2 2.5.8zM37 19.9c.5 0 1-.1 1.2-.4.3-.3.4-.7.4-1.1 0-.5-.1-.8-.4-1.1-.3-.3-.7-.4-1.2-.4h-1.7V20H37zM46.8 23.5h4V25H45v-9.7h1.8v8.2zM55.1 15.3h6.3v1.5h-4.5v2.6h4.2v1.5h-4.2v2.6h4.5V25h-6.3v-9.7zM68.8 15.3H71l3.2 9.7h-1.9l-.7-2.1H68l-.6 2.1h-1.9l3.3-9.7zm-.3 6.3h2.7l-1.4-4.2-1.3 4.2zM83.8 18c-.2-.9-.8-1.3-1.8-1.3-.5 0-.9.1-1.2.3-.3.2-.4.5-.4.7s.1.5.3.7c.2.2.5.3.9.5l2.1.8c.7.3 1.3.6 1.7 1.1.4.4.6 1 .6 1.6 0 .9-.3 1.6-1 2.1s-1.6.8-2.8.8c-1.1 0-2-.3-2.6-.8-.8-.6-1.1-1.4-1.2-2.5H80c0 .8.4 1.3 1.2 1.5.2.1.6.1 1 .1s.8-.1 1.1-.3.5-.5.5-.8c0-.3-.1-.6-.3-.8-.2-.2-.5-.4-.9-.5l-1.9-.8c-.8-.3-1.3-.6-1.7-1-.4-.4-.6-.9-.6-1.6 0-.8.3-1.4.9-1.9.6-.5 1.5-.7 2.6-.7s1.9.3 2.5.8c.6.5.9 1.2 1 2.1h-1.6zM90.9 15.3h6.3v1.5h-4.5v2.6h4.2v1.5h-4.2v2.6h4.5V25h-6.3v-9.7zM112.4 15.1c.6 0 1.1.1 1.6.2.4.1.8.3 1.1.6.6.5 1 1.2 1.2 2.1l-1.9.3c-.2-.5-.4-.9-.7-1.2s-.8-.5-1.3-.5c-.7 0-1.2.3-1.6.9-.5.6-.7 1.5-.7 2.6s.2 2 .6 2.6c.4.6.9.9 1.6.9.7 0 1.2-.2 1.6-.5.3-.3.5-.8.5-1.3h1.9c0 1.1-.3 1.9-1 2.5-.7.6-1.6.9-2.9.9-1.3 0-2.3-.5-3.1-1.4-.8-.9-1.2-2.2-1.2-3.8 0-1.6.4-2.9 1.2-3.8.9-.7 1.9-1.1 3.1-1.1zM122.9 15.3v4.1h4.2v-4.1h1.8V25h-1.8v-4.1h-4.2V25h-1.8v-9.7h1.8zM134.4 15.3h1.8V25h-1.8v-9.7zM143.5 23.5h4V25h-5.8v-9.7h1.8v8.2zM153.6 23.5h4V25h-5.8v-9.7h1.8v8.2z"/>
  </g>

  <defs>  
    <!-- gradient -->
    <linearGradient id="gradient" x1="0%" y1="0%" x2="100%" y2="0">
      <stop offset="0%" style="stop-color:#8d755d;"/>
      <stop offset="25%" style="stop-color:#e6cc98;"/>
      <stop offset="40%" style="stop-color:#be9d6b;"/>
      <stop offset="60%" style="stop-color:#eee4d1;"/>
      <stop offset="80%" style="stop-color:#6f5c4a;"/>
      <stop offset="100%" style="stop-color:#8d755d;"/>
    </linearGradient>
    
    <pattern id="pattern" x="0" y="0" width="300%" height="100%" patternUnits="userSpaceOnUse">
      <rect x="0" y="0" width="150%" height="100%" fill="url(#gradient)">
        <animate attributeType="XML"
                 attributeName="x"
                 from="0" to="150%"
                 dur="5s"
                 repeatCount="indefinite"/>
      </rect>
      <rect x="-150%" y="0" width="150%" height="100%" fill="url(#gradient)">
        <animate attributeType="XML"
                 attributeName="x"
                 from="-150%" to="0"
                 dur="5s"
                 repeatCount="indefinite"/>
      </rect>
    </pattern>
  </defs>
</svg>
