<?xml version="1.0" encoding="utf-8"?>
<!-- Generator: Adobe Illustrator 18.1.1, SVG Export Plug-In . SVG Version: 6.00 Build 0)  -->
<svg version="1.1" id="Layer_1" xmlns="http://www.w3.org/2000/svg" xmlns:xlink="http://www.w3.org/1999/xlink" x="0px" y="0px"
	 viewBox="0 0 440 116" enable-background="new 0 0 440 116" xml:space="preserve">
<g>
	<path fill="#FFF000" d="M186.1,21.3c-17.2,0-31.2,14-31.2,31.2c0,17.2,14,31.2,31.2,31.2c5.4,0,10.5-1.4,14.9-3.8v3.8
		c0,8.2-6.7,14.9-14.9,14.9c-4.5,0-8.1,3.6-8.1,8.1c0,4.5,3.6,8.1,8.1,8.1c17.2,0,31.2-14,31.2-31.2V52.5
		C217.3,35.3,203.3,21.3,186.1,21.3z M186.1,67.4c-8.2,0-14.9-6.7-14.9-14.9c0-8.2,6.7-14.9,14.9-14.9c8.2,0,14.9,6.7,14.9,14.9
		C201,60.7,194.3,67.4,186.1,67.4z"/>
	<path fill="#FFF000" d="M32.3,21.3c-17.2,0-31.2,14-31.2,31.2v44.4c0,4.5,3.6,8.1,8.1,8.1c4.5,0,8.1-3.6,8.1-8.1v-17
		c4.4,2.4,9.5,3.8,14.9,3.8c17.2,0,31.2-14,31.2-31.2C63.5,35.3,49.5,21.3,32.3,21.3z M32.3,67.4c-8.2,0-14.9-6.7-14.9-14.9
		c0-8.2,6.7-14.9,14.9-14.9c8.2,0,14.9,6.7,14.9,14.9C47.2,60.7,40.5,67.4,32.3,67.4z"/>
	<path fill="#FFF000" d="M119.9,21.3c-17.2,0-31.2,14-31.2,31.2v23.1c0,4.5,3.6,8.1,8.1,8.1c4.5,0,8.1-3.6,8.1-8.1V52.5
		c0-8.2,6.7-14.9,14.9-14.9c8.2,0,14.9,6.7,14.9,14.9v23.1c0,4.5,3.6,8.1,8.1,8.1c4.5,0,8.1-3.6,8.1-8.1V52.5
		C151,35.3,137.1,21.3,119.9,21.3z"/>
	<path fill="#FFF000" d="M318.6,21.1c-17.2,0-31.2,14-31.2,31.2c0,17.2,14,31.2,31.2,31.2c17.2,0,31.2-14,31.2-31.2
		C349.8,35.1,335.8,21.1,318.6,21.1z M318.6,67.2c-8.2,0-14.9-6.7-14.9-14.9c0-8.2,6.7-14.9,14.9-14.9c8.2,0,14.9,6.7,14.9,14.9
		C333.5,60.5,326.9,67.2,318.6,67.2z"/>
	<path fill="#FFF000" d="M275.4,0c-4.5,0-8.1,3.6-8.1,8.1v17c-4.4-2.4-9.5-3.8-14.9-3.8c-17.2,0-31.2,14-31.2,31.2
		c0,17.2,14,31.2,31.2,31.2c17.2,0,31.2-14,31.2-31.2V8.1C283.6,3.6,279.9,0,275.4,0z M252.4,67.4c-8.2,0-14.9-6.7-14.9-14.9
		c0-8.2,6.7-14.9,14.9-14.9c8.2,0,14.9,6.7,14.9,14.9C267.3,60.7,260.6,67.4,252.4,67.4z"/>
	<g>
		<path fill="#FFF000" d="M75.5,21.3c-4.5,0-8.1,3.6-8.1,8.1v46.1c0,4.5,3.6,8.1,8.1,8.1c4.5,0,8.1-3.6,8.1-8.1V29.5
			C83.6,25,80,21.3,75.5,21.3z"/>
		<path fill="#FFF000" d="M67.4,8.1c0,4.5,3.6,8.1,8.1,8.1c4.5,0,8.1-3.6,8.1-8.1C83.6,3.6,80,0,75.5,0C71,0,67.4,3.6,67.4,8.1z"/>
	</g>
	<path fill="#FFF000" d="M396.4,83.4c4.5,0,8.1-3.6,8.1-8.1V40.7c0-1.9,1.5-3.4,3.4-3.4c8.2,0,14.9,6.7,14.9,14.9v23.1
		c0,4.5,3.6,8.1,8.1,8.1c4.5,0,8.1-3.6,8.1-8.1V52.2c0-17.2-14-31.2-31.2-31.2c-4.1,0-8,0.8-11.5,2.3c-3.6-1.4-7.4-2.3-11.5-2.3
		c-17.2,0-31.2,14-31.2,31.2v23.1c0,4.5,3.6,8.1,8.1,8.1c4.5,0,8.1-3.6,8.1-8.1V52.2c0-8.2,6.7-14.9,14.9-14.9
		c1.9,0,3.4,1.5,3.4,3.4v34.6C388.3,79.8,391.9,83.4,396.4,83.4z"/>
</g>
</svg>
