<?xml version="1.0" encoding="utf-8"?>
<!-- Generator: Adobe Illustrator 17.1.0, SVG Export Plug-In . SVG Version: 6.00 Build 0)  -->
<!DOCTYPE svg PUBLIC "-//W3C//DTD SVG 1.1//EN" "http://www.w3.org/Graphics/SVG/1.1/DTD/svg11.dtd">
<svg version="1.1" id="Layer_1" xmlns="http://www.w3.org/2000/svg" xmlns:xlink="http://www.w3.org/1999/xlink" x="0px" y="0px"
	 viewBox="0 0 246 216" enable-background="new 0 0 246 216" xml:space="preserve">
<path fill="#FFFFFF" d="M12.7,41.6c0,3.9,1.9,5.6,4.4,5.6c2.4,0,4.4-1.9,4.4-4.4V1.7h12.1v41.1c0,9.2-7.3,16.5-16.5,16.5
	c-9.1,0-16.3-6.1-16.3-17.6H12.7z"/>
<path fill="#FFFFFF" d="M69.8,0.7c0.1,0,41.4,0,41.5,0C127.2,0.8,140,13.9,140,30c0,16.1-12.7,29.1-28.7,29.2c-0.1,0-41.4,0-41.5,0
	c-0.1,0-0.2,0-0.3,0C53.6,59.1,40.9,46.1,40.9,30c0-16.2,12.7-29.2,28.7-29.3C69.6,0.7,69.7,0.7,69.8,0.7z M69.8,47.4
	c0.1,0,41.4,0,41.4,0c8.8-0.1,16.1-7.9,16.1-17.4c0-9.5-7.3-17.3-16.1-17.4c-0.1,0-41.4,0-41.5,0c-0.1,0-0.1,0-0.2,0
	c-8.9,0.1-16,8-16,17.4c0,9.5,7.2,17.2,16.1,17.4C69.7,47.4,69.8,47.4,69.8,47.4z"/>
<path fill="#FFFFFF" d="M147.3,1.7h12.1V24h15.8V1.7h12.1v56.5h-12.1v-23h-15.8v23h-12.1V1.7z"/>
<path fill="#FFFFFF" d="M197.5,1.7h10.3l23.3,25v-25h11.6v57.5l-33.7-37.6v36.6h-11.6V1.7z"/>
<path fill="#FFFFFF" d="M3.7,78.8h12.1v19.9l14.4-19.9h14.2L25,104.2l20.8,31.1h-15l-13.3-20.9l-1.7,2.1v18.8H3.7V78.8z"/>
<path fill="#FFFFFF" d="M48.5,135.3l34.3-57.5l34.3,57.5h-13.6l-4.2-7.1H66.3l-4.2,7.1H48.5z M82.8,98.7l-10.7,18.6h21.3L82.8,98.7z
	"/>
<path fill="#FFFFFF" d="M194.1,114.6c6.5,4.8,7.8,10.5,7.8,16.4v4.4h-12.1V131c0-6-4-10.9-10.2-10.9h-47.8v15.3h-12.1V78.8H181
	c11.5,0,20.9,9.4,20.9,20.8C201.9,107.2,198.2,111.3,194.1,114.6z M179.9,90h-48v19.3h48c5.3,0,9.7-4.4,9.7-9.6
	C189.5,94.3,185.2,90,179.9,90z"/>
<path fill="#FFFFFF" d="M209.3,78.8h12.1V124h21.3v11.3h-33.4V78.8z"/>
<path fill="#FFFFFF" d="M17.3,191.3l5.3-16.4c3.3-10.1,9.8-18.1,25.3-18.1v11.9c-8.3,0-11.5,4.8-13.2,10.2l-5.3,16.5
	c-3.2,9.9-9.7,18-25.3,18v-11.9C12.3,201.5,15.3,197.3,17.3,191.3z"/>
<path fill="#FFFFFF" d="M49,191.3l5.3-16.4c3.3-10.1,9.8-18.1,25.3-18.1v11.9c-8.3,0-11.5,4.8-13.2,10.2L61,195.3
	c-3.2,9.9-9.7,18-25.3,18v-11.9C44,201.5,47,197.3,49,191.3z"/>
<path fill="#FFFFFF" d="M197.5,156.8h10.3l23.3,25v-25h11.6v57.5l-33.7-37.6v36.6h-11.6V156.8z"/>
<path fill="#FFFFFF" d="M112.8,156.8c0.1,0,47.7,0,47.7,0c16,0.1,28.8,13.1,28.8,29.3c0,16.1-12.7,29.1-28.7,29.2
	c-0.1,0-47.7,0-47.7,0c-0.1,0-0.2,0-0.3,0c-15.9-0.2-28.7-13.2-28.7-29.2c0-16.2,12.7-29.2,28.7-29.3
	C112.7,156.8,112.7,156.8,112.8,156.8z M112.9,203.4c0.1,0,47.6,0,47.7,0c8.8-0.1,16.1-7.9,16.1-17.4c0-9.5-7.3-17.3-16.1-17.4
	c-0.1,0-47.7,0-47.7,0c-0.1,0-0.1,0-0.2,0c-8.9,0.1-16,8-16,17.4c0,9.5,7.2,17.2,16.1,17.4C112.8,203.4,112.8,203.4,112.9,203.4z"/>
</svg>
