<svg version="1.1"
     xmlns="http://www.w3.org/2000/svg" xmlns:xlink="http://www.w3.org/1999/xlink" xmlns:a="http://ns.adobe.com/AdobeSVGViewerExtensions/3.0/"
     x="0px" y="0px" width="504.6px" height="132.3px" viewBox="0 0 504.6 132.3" enable-background="new 0 0 504.6 132.3"
     xml:space="preserve">
  <defs>
  </defs>
  <g>
    <path fill="#333333" d="M213.1,24.6c-19.8,0-35.9,16.1-35.9,35.9c0,19.8,16.1,35.9,35.9,35.9c6.2,0,12.1-1.6,17.2-4.4v4.4
      c0,9.5-7.7,17.2-17.2,17.2c-5.2,0-9.4,4.2-9.4,9.4c0,5.2,4.2,9.4,9.4,9.4c19.8,0,35.9-16.1,35.9-35.9V60.5
      C249,40.7,232.9,24.6,213.1,24.6z M213.1,77.7c-9.5,0-17.2-7.7-17.2-17.2c0-9.5,7.7-17.2,17.2-17.2c9.5,0,17.2,7.7,17.2,17.2
      C230.3,70,222.6,77.7,213.1,77.7z"/>
    <path fill="#333333" d="M35.9,24.6C16.1,24.6,0,40.7,0,60.5v51.1c0,5.2,4.2,9.4,9.4,9.4c5.2,0,9.4-4.2,9.4-9.4V92
      c5.1,2.8,11,4.4,17.2,4.4c19.8,0,35.9-16.1,35.9-35.9C71.8,40.7,55.7,24.6,35.9,24.6z M35.9,77.7c-9.5,0-17.2-7.7-17.2-17.2
      c0-9.5,7.7-17.2,17.2-17.2c9.5,0,17.2,7.7,17.2,17.2C53.1,70,45.4,77.7,35.9,77.7z"/>
    <path fill="#333333" d="M136.8,24.6c-19.8,0-35.9,16.1-35.9,35.9v26.6c0,5.2,4.2,9.4,9.4,9.4c5.2,0,9.4-4.2,9.4-9.4V60.5
      c0-9.5,7.7-17.2,17.2-17.2c9.5,0,17.2,7.7,17.2,17.2v26.6c0,5.2,4.2,9.4,9.4,9.4c5.2,0,9.4-4.2,9.4-9.4V60.5
      C172.7,40.7,156.6,24.6,136.8,24.6z"/>
    <path fill="#333333" d="M365.7,24.3c-19.8,0-35.9,16.1-35.9,35.9c0,19.8,16.1,35.9,35.9,35.9c19.8,0,35.9-16.1,35.9-35.9
      C401.7,40.4,385.6,24.3,365.7,24.3z M365.7,77.4c-9.5,0-17.2-7.7-17.2-17.2c0-9.5,7.7-17.2,17.2-17.2c9.5,0,17.2,7.7,17.2,17.2
      C382.9,69.7,375.2,77.4,365.7,77.4z"/>
    <path fill="#333333" d="M316,0c-5.2,0-9.4,4.2-9.4,9.4V29c-5.1-2.8-11-4.4-17.2-4.4c-19.8,0-35.9,16.1-35.9,35.9
      c0,19.8,16.1,35.9,35.9,35.9c19.8,0,35.9-16.1,35.9-35.9V9.4C325.3,4.2,321.2,0,316,0z M289.4,77.7c-9.5,0-17.2-7.7-17.2-17.2
      c0-9.5,7.7-17.2,17.2-17.2c9.5,0,17.2,7.7,17.2,17.2C306.6,70,298.9,77.7,289.4,77.7z"/>
    <g>
      <path fill="#333333" d="M85.7,24.6c-5.2,0-9.4,4.2-9.4,9.4v53.1c0,5.2,4.2,9.4,9.4,9.4c5.2,0,9.4-4.2,9.4-9.4V33.9
        C95.1,28.8,90.9,24.6,85.7,24.6z"/>
      <path fill="#333333" d="M76.3,9.4c0,5.2,4.2,9.4,9.4,9.4c5.2,0,9.4-4.2,9.4-9.4c0-5.2-4.2-9.4-9.4-9.4C80.5,0,76.3,4.2,76.3,9.4z"
        />
    </g>
    <path fill="#333333" d="M455.3,96.1c5.2,0,9.4-4.2,9.4-9.4V46.9c0-2.2,1.8-3.9,3.9-3.9c9.5,0,17.2,7.7,17.2,17.2v26.6
      c0,5.2,4.2,9.4,9.4,9.4c5.2,0,9.4-4.2,9.4-9.4V60.2c0-19.8-16.1-35.9-35.9-35.9c-4.7,0-9.2,0.9-13.3,2.6c-4.1-1.7-8.6-2.6-13.3-2.6
      c-19.8,0-35.9,16.1-35.9,35.9v26.6c0,5.2,4.2,9.4,9.4,9.4c5.2,0,9.4-4.2,9.4-9.4V60.2c0-9.5,7.7-17.2,17.2-17.2
      c2.2,0,3.9,1.7,3.9,3.9v39.8C446,91.9,450.2,96.1,455.3,96.1z"/>
  </g>
  </svg>