<?xml version="1.0" encoding="utf-8"?>
<!-- Generator: Adobe Illustrator 18.1.1, SVG Export Plug-In . SVG Version: 6.00 Build 0)  -->
<svg version="1.1" id="Layer_1" xmlns="http://www.w3.org/2000/svg" xmlns:xlink="http://www.w3.org/1999/xlink" x="0px" y="0px"
	 viewBox="0 0 140 60" enable-background="new 0 0 140 60" xml:space="preserve">
<path fill="#FFFFFF" d="M137,3v54H3V3H137 M140,0H0v60h140V0L140,0z"/>
<g>
	<path fill="#FFFFFF" d="M40.2,14.1c0.8,0.7,1.2,1.7,1.2,3.1c0,1.3-0.4,2.3-1.2,3.1c-0.8,0.7-2,1.1-3.4,1.1h-2.2V26h-2.4V13h4.6
		C38.3,13,39.4,13.4,40.2,14.1z M36.8,19.2c0.7,0,1.3-0.2,1.7-0.6c0.4-0.4,0.6-0.9,0.6-1.5c0-0.6-0.2-1.1-0.6-1.5
		c-0.4-0.4-0.9-0.6-1.7-0.6h-2.2v4.2H36.8z"/>
	<path fill="#FFFFFF" d="M46.9,12.3h2.4V26h-2.4V12.3z"/>
	<path fill="#FFFFFF" d="M63.5,18.9c0.2,0.6,0.2,1.1,0.2,1.5s0,0.9-0.1,1.3h-6.3c0,0.8,0.2,1.4,0.6,1.9c0.4,0.5,0.9,0.7,1.6,0.7
		c1,0,1.6-0.4,1.7-1.3h2.4c-0.2,1-0.6,1.7-1.3,2.3c-0.8,0.6-1.7,0.9-2.8,0.9c-1.3,0-2.4-0.5-3.2-1.4c-0.9-1-1.3-2.2-1.3-3.7
		c0-1.6,0.4-2.8,1.3-3.8c0.9-0.9,1.9-1.4,3.2-1.4c1.3,0,2.4,0.5,3.1,1.4C63.1,17.9,63.4,18.4,63.5,18.9z M59.7,17.9
		c-0.7,0-1.2,0.2-1.6,0.6c-0.4,0.4-0.6,1-0.7,1.7h4.1c0-1.1-0.3-1.8-1-2.1C60.3,18,60,17.9,59.7,17.9z"/>
	<path fill="#FFFFFF" d="M72.8,20.3c0.8,0,1.7,0.1,2.7,0.4v-1c0-0.7-0.1-1.2-0.4-1.5c-0.3-0.3-0.7-0.5-1.3-0.5s-1.1,0.1-1.4,0.4
		c-0.3,0.2-0.5,0.6-0.5,1h-2.6c0-1.1,0.4-1.9,1.2-2.4c0.8-0.5,1.9-0.7,3.3-0.7c2,0,3.3,0.7,3.9,2.1c0.2,0.5,0.3,1,0.3,1.7V26h-2.1
		l-0.2-1.3c-0.6,1.1-1.6,1.6-2.9,1.6c-1.3,0-2.2-0.3-2.9-0.9c-0.6-0.6-1-1.3-1-2.2c0-0.9,0.4-1.6,1.1-2.1
		C70.6,20.6,71.6,20.3,72.8,20.3z M75.5,22.2c-0.8-0.2-1.5-0.3-2.2-0.3c-1.3,0-1.9,0.4-1.9,1.3c0,0.4,0.1,0.7,0.4,0.9
		c0.3,0.3,0.8,0.4,1.4,0.4s1.2-0.2,1.6-0.7S75.5,22.9,75.5,22.2z"/>
	<path fill="#FFFFFF" d="M85.6,23c0,0.9,0.7,1.4,2,1.4c0.5,0,0.9-0.1,1.2-0.3c0.3-0.2,0.5-0.5,0.5-0.8s-0.1-0.5-0.3-0.7
		c-0.2-0.2-0.5-0.3-0.9-0.4L86,21.4c-1.6-0.5-2.4-1.4-2.4-2.7c0-0.8,0.4-1.5,1.1-2s1.7-0.8,3-0.8c1.2,0,2.2,0.3,2.9,0.8
		c0.7,0.5,1,1.2,1,2.1h-2.2c0-0.3-0.2-0.6-0.5-0.8c-0.3-0.2-0.7-0.3-1.2-0.3c-0.5,0-0.9,0.1-1.2,0.3c-0.3,0.2-0.4,0.4-0.4,0.7
		c0,0.5,0.4,0.8,1.2,1l2.3,0.9c0.8,0.3,1.3,0.6,1.8,1c0.4,0.4,0.6,0.9,0.6,1.5c0,0.8-0.4,1.5-1.1,2.1c-0.8,0.6-1.8,0.9-3.1,0.9
		s-2.3-0.3-3.1-0.9c-0.8-0.6-1.2-1.4-1.2-2.4H85.6z"/>
	<path fill="#FFFFFF" d="M105.3,18.9c0.2,0.6,0.2,1.1,0.2,1.5s0,0.9-0.1,1.3h-6.3c0,0.8,0.2,1.4,0.6,1.9c0.4,0.5,0.9,0.7,1.6,0.7
		c1,0,1.6-0.4,1.7-1.3h2.4c-0.2,1-0.6,1.7-1.3,2.3c-0.8,0.6-1.7,0.9-2.8,0.9c-1.3,0-2.4-0.5-3.2-1.4c-0.9-1-1.3-2.2-1.3-3.7
		c0-1.6,0.4-2.8,1.3-3.8c0.9-0.9,1.9-1.4,3.2-1.4c1.3,0,2.4,0.5,3.1,1.4C104.9,17.9,105.2,18.4,105.3,18.9z M101.5,17.9
		c-0.7,0-1.2,0.2-1.6,0.6c-0.4,0.4-0.6,1-0.7,1.7h4.1c0-1.1-0.3-1.8-1-2.1C102.1,18,101.8,17.9,101.5,17.9z"/>
</g>
<g>
	<path fill="#FFFFFF" d="M47.1,33.3c0.8,0,1.5,0.1,2.1,0.3s1.1,0.5,1.5,0.8c0.8,0.7,1.4,1.6,1.6,2.9l-2.5,0.5
		c-0.2-0.7-0.5-1.2-1-1.6c-0.4-0.4-1-0.6-1.7-0.6c-0.9,0-1.6,0.4-2.2,1.1c-0.6,0.8-0.9,2-0.9,3.4s0.3,2.6,0.8,3.4
		c0.5,0.8,1.3,1.2,2.2,1.2s1.6-0.2,2.1-0.7s0.7-1,0.7-1.7h2.5c0,1.5-0.5,2.6-1.4,3.4c-0.9,0.8-2.2,1.2-3.8,1.2
		c-1.7,0-3.1-0.6-4.1-1.8c-1-1.2-1.5-2.9-1.5-5c0-2.1,0.5-3.8,1.6-5C44.1,33.8,45.4,33.3,47.1,33.3z"/>
	<path fill="#FFFFFF" d="M60.5,38.4c0.7-1.2,1.6-1.8,2.9-1.8c1.3,0,2.2,0.4,2.8,1.2s0.9,1.8,0.9,3.1v5.7h-2.4v-5.7
		c0-0.7-0.2-1.3-0.5-1.6c-0.3-0.4-0.8-0.6-1.5-0.6s-1.2,0.3-1.6,0.8c-0.4,0.6-0.7,1.4-0.7,2.5v4.5h-2.4V32.8h2.4V38.4z"/>
	<path fill="#FFFFFF" d="M73.5,33.6c0-0.4,0.1-0.8,0.4-1c0.3-0.2,0.6-0.4,1.1-0.4c0.5,0,0.8,0.1,1.1,0.4c0.3,0.2,0.4,0.6,0.4,1
		c0,0.4-0.1,0.8-0.4,1C75.8,34.9,75.4,35,75,35c-0.5,0-0.8-0.1-1.1-0.4C73.6,34.4,73.5,34.1,73.5,33.6z M73.8,36.8h2.4v9.7h-2.4
		V36.8z"/>
	<path fill="#FFFFFF" d="M83.1,32.8h2.4v13.7h-2.4V32.8z"/>
	<path fill="#FFFFFF" d="M92.2,32.8h2.4v13.7h-2.4V32.8z"/>
</g>
</svg>
