<?xml version="1.0" encoding="utf-8"?>
<!-- Generator: Adobe Illustrator 18.1.1, SVG Export Plug-In . SVG Version: 6.00 Build 0)  -->
<svg version="1.1" id="Layer_1" xmlns="http://www.w3.org/2000/svg" xmlns:xlink="http://www.w3.org/1999/xlink" x="0px" y="0px"
	 viewBox="0 0 24 100" enable-background="new 0 0 24 100" xml:space="preserve">
<path id="j" fill="#FFFFFF" d="M17,95.1c1,0,2.1-0.5,2.1-1.6c0-1-0.9-1.6-2-1.6H0v-5h17.1c3.8,0,6.9,2.8,6.9,6.5
	c0,3.7-2.1,6.5-7.1,6.5V95.1z"/>
<path id="o" fill="#FFFFFF" d="M0,71.7c0,0,0-17,0-17c0-6.6,5.4-11.8,12-11.8c6.6,0,12,5.2,12,11.8c0,0,0,17,0,17c0,0,0,0.1,0,0.1
	c0,6.5-5.4,11.8-12,11.8C5.4,83.6,0,78.3,0,71.7C0,71.7,0,71.7,0,71.7z M19,71.7c0,0,0-17,0-17c0-3.6-3.1-6.6-7-6.6s-7,3-7,6.6
	c0,0,0,17,0,17c0,0,0,0,0,0.1c0,3.7,3.1,6.6,7,6.6C15.9,78.3,19,75.4,19,71.7C19,71.7,19,71.7,19,71.7z"/>
<path id="h" fill="#FFFFFF" d="M0,40v-5h10v-7H0v-5h24v5H14v7h10v5H0z"/>
<path id="n" fill="#FFFFFF" d="M0,19.3v-4.2L10.6,5H0V0h23.9L8.5,14H24v5H0.3L0,19.3z"/>
</svg>
