<?xml version="1.0" encoding="utf-8"?>
<!-- Generator: Adobe Illustrator 17.1.0, SVG Export Plug-In . SVG Version: 6.00 Build 0)  -->
<!DOCTYPE svg PUBLIC "-//W3C//DTD SVG 1.1//EN" "http://www.w3.org/Graphics/SVG/1.1/DTD/svg11.dtd">
<svg version="1.1" id="Layer_1" xmlns="http://www.w3.org/2000/svg" xmlns:xlink="http://www.w3.org/1999/xlink" x="0px" y="0px"
	 viewBox="0 0 150 85" enable-background="new 0 0 150 85" xml:space="preserve">
<line fill="none" stroke="#FFFFFF" stroke-width="2" stroke-miterlimit="10" x1="75" y1="32.5" x2="75" y2="2.5"/>
<g>
	<path fill="#FFFFFF" d="M1.4,59.9v-12H4v12H1.4z"/>
	<path fill="#FFFFFF" d="M18.2,59.9l-5.7-7.8v7.8H10v-12h2.6l5.6,7.5v-7.5h2.6v12H18.2z"/>
	<path fill="#FFFFFF" d="M29.5,59.9v-9.8H26v-2.3h9.6v2.3H32v9.8H29.5z"/>
	<path fill="#FFFFFF" d="M40.8,59.9v-12h8.5v2.3h-5.9v2.5h5.8V55h-5.8v2.7h5.9v2.3H40.8z"/>
	<path fill="#FFFFFF" d="M61.6,59.9l-2.4-4.3h-1.9v4.3h-2.6v-12h5.6c2.5,0,4,1.6,4,3.9c0,2.1-1.3,3.3-2.6,3.6l2.7,4.6H61.6z
		 M61.9,51.8c0-1-0.8-1.6-1.8-1.6h-2.7v3.2h2.7C61.1,53.4,61.9,52.8,61.9,51.8z"/>
	<path fill="#FFFFFF" d="M78.3,59.9l-0.7-2h-5.1l-0.8,2h-2.9l4.6-12h3.2l4.6,12H78.3z M75,50.5l-1.9,5.2h3.7L75,50.5z"/>
	<path fill="#FFFFFF" d="M84.8,54c0-3.7,2.8-6.2,6.4-6.2c2.6,0,4.2,1.4,5,2.9L94,51.8c-0.5-1-1.6-1.7-2.8-1.7
		c-2.2,0-3.8,1.7-3.8,3.9s1.6,3.9,3.8,3.9c1.2,0,2.3-0.8,2.8-1.7l2.2,1.1c-0.9,1.5-2.4,3-5,3C87.5,60.2,84.8,57.6,84.8,54z"/>
	<path fill="#FFFFFF" d="M104.1,59.9v-9.8h-3.5v-2.3h9.6v2.3h-3.5v9.8H104.1z"/>
	<path fill="#FFFFFF" d="M115.4,59.9v-12h2.6v12H115.4z"/>
	<path fill="#FFFFFF" d="M127.3,59.9l-4.6-12h2.9l3.3,9.2l3.3-9.2h2.9l-4.6,12H127.3z"/>
	<path fill="#FFFFFF" d="M139.8,59.9v-12h8.5v2.3h-5.9v2.5h5.8V55h-5.8v2.7h5.9v2.3H139.8z"/>
	<path fill="#FFFFFF" d="M19.6,81.5v-12h4.7c3.8,0,6.4,2.4,6.4,6s-2.6,6-6.4,6H19.6z M28.1,75.6c0-2.1-1.3-3.8-3.8-3.8h-2.2v7.5h2.2
		C26.7,79.3,28.1,77.6,28.1,75.6z"/>
	<path fill="#FFFFFF" d="M36.1,81.5v-12h8.5v2.3h-5.9v2.5h5.8v2.2h-5.8v2.7h5.9v2.3H36.1z"/>
	<path fill="#FFFFFF" d="M49.4,79.9l1.4-1.9c0.8,0.9,2.2,1.6,3.8,1.6c1.4,0,2.1-0.6,2.1-1.3c0-2.1-6.9-0.7-6.9-5.2
		c0-2,1.7-3.7,4.6-3.7c1.9,0,3.5,0.6,4.7,1.7l-1.4,1.9c-1-0.9-2.3-1.3-3.5-1.3c-1.1,0-1.7,0.5-1.7,1.2c0,1.9,6.9,0.6,6.9,5.1
		c0,2.2-1.6,3.9-4.8,3.9C52.2,81.8,50.5,81,49.4,79.9z"/>
	<path fill="#FFFFFF" d="M64.6,81.5v-12h2.6v12H64.6z"/>
	<path fill="#FFFFFF" d="M72.6,75.6c0-3.8,2.9-6.2,6.4-6.2c2.5,0,4.1,1.3,5,2.7l-2.1,1.2c-0.5-0.8-1.6-1.6-2.8-1.6
		c-2.2,0-3.8,1.7-3.8,3.9s1.6,3.9,3.8,3.9c1.1,0,2.1-0.5,2.6-0.9v-1.4h-3.2v-2.2h5.7v4.6c-1.2,1.4-2.9,2.3-5.1,2.3
		C75.5,81.8,72.6,79.3,72.6,75.6z"/>
	<path fill="#FFFFFF" d="M98,81.5l-5.7-7.8v7.8h-2.6v-12h2.6l5.6,7.5v-7.5h2.6v12H98z"/>
	<path fill="#FFFFFF" d="M106.5,81.5v-12h8.5v2.3H109v2.5h5.8v2.2H109v2.7h5.9v2.3H106.5z"/>
	<path fill="#FFFFFF" d="M127.3,81.5l-2.4-4.3h-1.9v4.3h-2.6v-12h5.6c2.5,0,4,1.6,4,3.9c0,2.1-1.3,3.3-2.6,3.6l2.7,4.6H127.3z
		 M127.6,73.4c0-1-0.8-1.6-1.8-1.6h-2.7V75h2.7C126.8,75,127.6,74.4,127.6,73.4z"/>
</g>
</svg>
